<?xml version="1.0" standalone="no"?>
<!DOCTYPE svg PUBLIC "-//W3C//DTD SVG 20010904//EN"
 "http://www.w3.org/TR/2001/REC-SVG-20010904/DTD/svg10.dtd">
<svg version="1.0" xmlns="http://www.w3.org/2000/svg"
 width="120.000000pt" height="120.000000pt" viewBox="0 0 120.000000 120.000000"
 preserveAspectRatio="xMidYMid meet">
<metadata>
Created by potrace 1.11, written by Peter Selinger 2001-2013
</metadata>
<g transform="translate(0.000000,120.000000) scale(0.100000,-0.100000)"
fill="#000000" stroke="none">
<path d="M182 1182 c2 -12 16 -19 46 -23 25 -3 52 -15 65 -28 l22 -22 0 -509
0 -509 -22 -22 c-13 -13 -40 -25 -65 -28 -29 -4 -44 -11 -46 -23 -3 -16 15
-17 232 -17 200 0 236 2 236 14 0 15 -14 20 -85 29 -26 3 -48 14 -62 31 -22
25 -23 32 -23 261 l0 234 78 0 c128 0 185 -46 198 -161 5 -47 10 -59 24 -59
16 0 17 18 16 240 -1 217 -3 240 -18 240 -11 0 -19 -11 -23 -32 -20 -104 -29
-131 -55 -157 -33 -32 -66 -41 -156 -41 l-64 0 0 254 c0 319 -10 300 151 304
204 7 264 -13 306 -98 13 -25 29 -83 36 -130 10 -66 17 -86 30 -88 15 -3 17
10 17 131 0 74 3 155 6 180 l7 46 -427 1 c-401 0 -427 -1 -424 -18z"/>
</g>
</svg>
